<?xml version="1.0" standalone="no"?>
<!DOCTYPE svg PUBLIC "-//W3C//DTD SVG 20010904//EN"
 "http://www.w3.org/TR/2001/REC-SVG-20010904/DTD/svg10.dtd">
<svg version="1.0" xmlns="http://www.w3.org/2000/svg"
 width="236.000000pt" height="236.000000pt" viewBox="0 0 236.000000 236.000000"
 preserveAspectRatio="xMidYMid meet">

<g transform="translate(0.000000,236.000000) scale(0.100000,-0.100000)"
fill="#000000" stroke="none">
<path d="M0 1180 l0 -1180 1180 0 1180 0 0 1180 0 1180 -1180 0 -1180 0 0
-1180z m1299 1010 c285 -37 533 -180 702 -403 161 -212 237 -501 200 -758 -17
-115 -72 -277 -128 -374 -42 -74 -142 -210 -148 -203 -2 2 -21 39 -44 82 l-41
79 43 46 c23 25 48 60 55 76 7 17 26 38 42 47 50 29 63 106 24 139 -12 10 -14
25 -9 68 9 85 -36 228 -99 309 -63 83 -98 107 -202 144 -79 27 -98 30 -169 25
-151 -10 -233 -58 -326 -191 -37 -52 -49 -78 -49 -106 0 -20 -7 -59 -15 -86
-21 -68 -19 -89 12 -145 24 -46 25 -50 10 -67 -36 -40 -9 -132 38 -132 24 0
30 4 27 20 -2 8 12 -7 31 -35 54 -77 97 -113 183 -150 85 -37 87 -44 8 -20
-27 8 -56 15 -65 15 -33 0 -89 -208 -89 -331 0 -33 -4 -59 -10 -59 -5 0 -10 9
-10 20 0 40 -160 643 -174 658 -9 8 -169 41 -177 36 -12 -7 -30 33 -23 51 4 8
19 22 35 30 15 8 40 31 54 49 15 19 42 40 61 46 39 13 43 29 14 55 -24 22 -12
42 28 47 28 3 31 13 17 69 -6 24 -3 28 39 44 73 28 75 38 10 75 -31 17 -54 34
-51 36 3 3 42 24 88 47 45 23 84 47 86 54 2 6 -24 20 -61 33 -37 12 -66 25
-66 29 0 4 25 31 55 61 30 29 52 57 49 62 -3 4 -31 8 -62 9 -96 1 -98 4 -50
82 22 37 38 70 35 74 -4 3 -39 -6 -78 -21 -39 -15 -74 -24 -77 -21 -3 3 -8 41
-11 84 -4 44 -9 82 -12 85 -8 8 -97 -49 -137 -87 l-33 -32 -56 63 c-31 35 -59
60 -63 55 -4 -4 -13 -33 -19 -63 -7 -30 -18 -65 -26 -77 l-14 -21 -51 19 c-66
25 -105 26 -95 2 13 -31 35 -106 35 -118 0 -8 -37 -16 -105 -25 -58 -6 -105
-14 -105 -17 0 -3 20 -25 45 -50 24 -25 47 -55 51 -66 7 -23 -7 -37 -96 -99
-57 -39 -57 -39 16 -58 23 -5 53 -22 68 -37 l27 -27 -56 -56 c-30 -30 -55 -59
-55 -62 0 -4 25 -12 56 -19 31 -7 58 -18 61 -25 2 -7 -3 -36 -11 -65 -9 -29
-16 -54 -16 -57 0 -2 25 0 55 3 49 7 55 5 56 -11 2 -57 10 -68 39 -59 22 7 22
14 5 60 -4 11 3 4 16 -15 14 -19 46 -46 72 -60 80 -43 72 -51 -139 -135 l-41
-16 -49 -157 -50 -156 -41 54 c-84 112 -159 293 -183 443 -20 121 -8 331 24
440 52 176 127 306 251 436 224 235 549 352 864 311z m-559 -630 c21 -11 43
-70 35 -92 -5 -12 -27 -17 -93 -20 -48 -2 -89 -3 -91 -1 -2 1 -4 17 -3 35 2
65 91 111 152 78z m249 -30 c14 -7 21 -21 21 -39 l0 -28 -82 4 c-46 3 -89 6
-95 8 -20 6 -15 33 8 56 18 18 29 21 74 16 29 -3 63 -10 74 -17z m-462 -297
c-3 -10 -5 -2 -5 17 0 19 2 27 5 18 2 -10 2 -26 0 -35z m10 -60 c-3 -10 -5 -4
-5 12 0 17 2 24 5 18 2 -7 2 -21 0 -30z m10 -45 c-3 -8 -6 -5 -6 6 -1 11 2 17
5 13 3 -3 4 -12 1 -19z m973 -30 c25 -41 26 -119 4 -158 -43 -72 -147 -85
-211 -27 -30 28 -36 41 -37 77 l-1 43 73 13 c79 13 121 35 129 65 8 28 21 23
43 -13z m134 17 c10 -27 71 -45 150 -45 73 0 76 -1 82 -25 9 -38 -17 -97 -55
-122 -95 -64 -243 22 -226 131 10 65 35 96 49 61z m-667 -330 c45 -88 93 -206
93 -230 0 -12 -7 -28 -15 -35 -9 -7 -29 -30 -46 -51 l-31 -39 56 -58 c31 -32
56 -65 56 -73 0 -8 -9 0 -19 16 -10 17 -37 48 -60 70 -22 21 -41 43 -41 48 0
6 20 32 45 58 25 26 45 55 45 64 0 20 -72 191 -112 265 -16 30 -22 46 -13 35
9 -11 28 -42 42 -70z m-346 -22 c-11 -21 -20 -35 -21 -31 0 12 33 78 38 74 2
-2 -6 -21 -17 -43z m292 -153 c4 -75 4 -89 -2 -50 -12 77 -21 246 -11 195 4
-22 10 -87 13 -145z m-242 30 c-6 -81 -9 -91 -10 -45 -1 63 10 177 16 160 2
-6 -1 -57 -6 -115z m-80 53 c-12 -20 -14 -14 -5 12 4 9 9 14 11 11 3 -2 0 -13
-6 -23z m-31 -84 c-30 -81 -27 -100 25 -147 25 -22 45 -45 45 -50 0 -5 -9 -17
-21 -28 -21 -19 -21 -19 -8 9 12 26 10 30 -36 77 l-48 49 28 76 c15 42 29 74
32 72 2 -3 -5 -29 -17 -58z"/>
</g>
</svg>
